
PLOT

Santi, a young high-school student with a serious physical reaction to sunlight, is forced
by his health to move with his single mother to a shadowy, isolated village in the mountains
of Spain where the inhabitants begin to reveal themselves as strangely xenophobic. When
terrible, violent events begin to occur, Santi becomes first a pariah at school and then
strongly suspected by the police of hideous murders.
 
http://www.imdb.com/title/tt0896927/

Encoded By .......: BigPerm1828
Runtime ..........: 1h 34mn
File Size ........: 913 MB
Resolution .......: 704x396
IMDb URL .........: http://www.imdb.com/title/tt0896927/
Genre ............: Horror,Thriller
Language .........: Spanish
Subtitles ........: English
Video
ID : 0
Format : MPEG-4 Visual
Format profile : Advanced Simple@L5
Format settings, BVOP : Yes
Format settings, QPel : No
Format settings, GMC : No warppoints
Format settings, Matrix : Default (H.263)
Codec ID : XVID
Codec ID/Hint : XviD
Duration : 1h 34mn
Bit rate : 899 Kbps
Width : 704 pixels
Height : 396 pixels
Display aspect ratio : 16:9
Frame rate : 23.976 fps
Color space : YUV
Chroma subsampling : 4:2:0
Bit depth : 8 bits
Scan type : Progressive
Compression mode : Lossy
Bits/(Pixel*Frame) : 0.134
Stream size : 607 MiB (66%)
Writing library : XviD 1.2.1 (UTC 2008-12-04)

Audio
ID : 1
Format : AC-3
Format/Info : Audio Coding 3
Mode extension : CM (complete main)
Codec ID : 2000
Duration : 1h 34mn
Bit rate mode : Constant
Bit rate : 448 Kbps
Channel(s) : 6 channels
Channel positions : Front: L C R, Side: L R, LFE
Sampling rate : 48.0 KHz
Bit depth : 16 bits
Compression mode : Lossy
Video delay : 42ms
Stream size : 303 MiB (33%)
Alignment : Split accross interleaves
Interleave, duration : 500 ms (11.99 video frames)
Interleave, preload duration : 500 ms
 
http://leetleech.org/images/45061118919123862520.png
 
http://leetleech.org/images/55364234764481013206.png
 
http://leetleech.org/images/41543689920557973777.png
 
http://leetleech.org/images/90723732066806593841.png